<mxfile host="app.diagrams.net" modified="2020-10-26T02:18:32.930Z" agent="5.0 (X11; Linux x86_64) AppleWebKit/537.36 (KHTML, like Gecko) Chrome/85.0.4183.102 Safari/537.36" etag="T9Y-7TjM9EW26pMvl2oB" version="13.8.2" type="github">
  <diagram id="lEyakFDxdw2mU7keoOri" name="Page-1">
    <mxGraphModel dx="395" dy="193" grid="1" gridSize="10" guides="1" tooltips="1" connect="1" arrows="1" fold="1" page="1" pageScale="1" pageWidth="850" pageHeight="1100" math="0" shadow="0">
      <root>
        <mxCell id="0" />
        <mxCell id="1" parent="0" />
        <mxCell id="GsX9Pxvk5_ErZqjDWkGm-1" value="" style="verticalLabelPosition=bottom;verticalAlign=top;html=1;shape=mxgraph.basic.arc;startAngle=0.3;endAngle=0.046386789538871175;rotation=-65;" vertex="1" parent="1">
          <mxGeometry x="375" y="300" width="100" height="100" as="geometry" />
        </mxCell>
        <mxCell id="GsX9Pxvk5_ErZqjDWkGm-3" value="" style="endArrow=none;html=1;exitX=0.642;exitY=0.014;exitDx=0;exitDy=0;exitPerimeter=0;entryX=0.968;entryY=0.673;entryDx=0;entryDy=0;entryPerimeter=0;" edge="1" parent="1" source="GsX9Pxvk5_ErZqjDWkGm-1" target="GsX9Pxvk5_ErZqjDWkGm-1">
          <mxGeometry width="50" height="50" relative="1" as="geometry">
            <mxPoint x="420" y="400" as="sourcePoint" />
            <mxPoint x="470" y="350" as="targetPoint" />
          </mxGeometry>
        </mxCell>
        <mxCell id="GsX9Pxvk5_ErZqjDWkGm-4" value="" style="rounded=0;whiteSpace=wrap;html=1;rotation=90;" vertex="1" parent="1">
          <mxGeometry x="390" y="320" width="20" height="10" as="geometry" />
        </mxCell>
        <mxCell id="GsX9Pxvk5_ErZqjDWkGm-9" value="" style="rounded=0;whiteSpace=wrap;html=1;rotation=90;" vertex="1" parent="1">
          <mxGeometry x="435" y="320" width="20" height="10" as="geometry" />
        </mxCell>
        <mxCell id="GsX9Pxvk5_ErZqjDWkGm-10" value="" style="rounded=0;whiteSpace=wrap;html=1;rotation=-180;" vertex="1" parent="1">
          <mxGeometry x="380" y="345" width="20" height="10" as="geometry" />
        </mxCell>
        <mxCell id="GsX9Pxvk5_ErZqjDWkGm-12" value="" style="rounded=0;whiteSpace=wrap;html=1;rotation=-180;" vertex="1" parent="1">
          <mxGeometry x="455" y="345" width="20" height="10" as="geometry" />
        </mxCell>
        <mxCell id="GsX9Pxvk5_ErZqjDWkGm-13" value="" style="rounded=0;whiteSpace=wrap;html=1;rotation=120;" vertex="1" parent="1">
          <mxGeometry x="390" y="370" width="20" height="10" as="geometry" />
        </mxCell>
        <mxCell id="GsX9Pxvk5_ErZqjDWkGm-14" value="" style="rounded=0;whiteSpace=wrap;html=1;rotation=62;" vertex="1" parent="1">
          <mxGeometry x="445" y="370" width="20" height="10" as="geometry" />
        </mxCell>
      </root>
    </mxGraphModel>
  </diagram>
</mxfile>
